<svg width="180" height="48" viewBox="0 0 180 48" fill="none" xmlns="http://www.w3.org/2000/svg">
<g clip-path="url(#clip0_504_1827)">
<path d="M59.605 12.81H65.43L69.175 26.06L72.79 12.81H76.82L80.21 26.09L83.92 12.81H89.745L83.57 35.18H78.355L74.675 22.19L71.025 35.18H65.775L59.605 12.81ZM95.38 35.66C93.46 35.66 91.905 35.2 90.71 34.285C89.535 33.345 88.95 32.045 88.95 30.38C88.95 28.65 89.515 27.33 90.645 26.41C91.795 25.47 93.44 25 95.575 25C96.405 25 97.24 25.095 98.07 25.29C98.9 25.46 99.615 25.695 100.215 25.995V25.675C100.215 24.03 98.87 23.21 96.185 23.21C94.31 23.21 92.59 23.575 91.035 24.3V20.43C91.72 20.11 92.615 19.855 93.725 19.66C94.835 19.445 95.985 19.34 97.18 19.34C100.04 19.34 102.195 19.915 103.645 21.07C105.115 22.2 105.855 23.79 105.855 25.84V35.185H100.575V33.875C100 34.43 99.275 34.865 98.4 35.185C97.525 35.505 96.51 35.66 95.38 35.66ZM97.045 32.205C97.705 32.205 98.325 32.075 98.9 31.82C99.475 31.545 99.915 31.19 100.21 30.765V29.42C99.295 28.8 98.245 28.49 97.075 28.49C96.33 28.49 95.75 28.65 95.345 28.97C94.94 29.29 94.735 29.76 94.735 30.38C94.735 30.955 94.925 31.405 95.31 31.725C95.72 32.045 96.295 32.205 97.045 32.205ZM107.915 32.11L115.21 23.725H108.105V19.82H122.635V22.89L115.405 31.275H122.895V35.18H107.92V32.11H107.915ZM130.1 35.66C128.18 35.66 126.62 35.2 125.43 34.285C124.255 33.345 123.67 32.045 123.67 30.38C123.67 28.65 124.235 27.33 125.365 26.41C126.515 25.47 128.16 25 130.295 25C131.125 25 131.96 25.095 132.79 25.29C133.62 25.46 134.335 25.695 134.935 25.995V25.675C134.935 24.03 133.59 23.21 130.905 23.21C129.03 23.21 127.31 23.575 125.755 24.3V20.43C126.44 20.11 127.335 19.855 128.445 19.66C129.555 19.445 130.705 19.34 131.9 19.34C134.76 19.34 136.915 19.915 138.365 21.07C139.835 22.2 140.575 23.79 140.575 25.84V35.185H135.295V33.875C134.72 34.43 133.995 34.865 133.12 35.185C132.245 35.505 131.23 35.66 130.1 35.66ZM131.765 32.205C132.425 32.205 133.045 32.075 133.62 31.82C134.195 31.545 134.635 31.19 134.93 30.765V29.42C134.01 28.8 132.965 28.49 131.795 28.49C131.05 28.49 130.47 28.65 130.065 28.97C129.66 29.29 129.455 29.76 129.455 30.38C129.455 30.955 129.645 31.405 130.03 31.725C130.44 32.045 131.015 32.205 131.765 32.205ZM143.275 19.82H148.715V21.355C150.145 20.01 151.96 19.34 154.155 19.34C155.755 19.34 157.175 19.68 158.41 20.365C159.645 21.025 160.605 21.975 161.29 23.215C161.97 24.43 162.315 25.85 162.315 27.47C162.315 29.07 161.975 30.5 161.29 31.76C160.605 32.995 159.645 33.955 158.41 34.64C157.195 35.325 155.775 35.665 154.155 35.665C153.13 35.665 152.15 35.505 151.21 35.185C150.295 34.885 149.525 34.47 148.905 33.935V42.19H143.275V19.82ZM152.685 31.275C153.835 31.275 154.765 30.935 155.47 30.25C156.175 29.565 156.525 28.64 156.525 27.465C156.525 26.29 156.175 25.375 155.47 24.715C154.765 24.03 153.84 23.69 152.685 23.69C151.83 23.69 151.065 23.915 150.38 24.36C149.695 24.785 149.205 25.375 148.91 26.12V28.84C149.21 29.585 149.7 30.185 150.38 30.63C151.06 31.065 151.83 31.275 152.685 31.275ZM169.535 35.66C167.615 35.66 166.055 35.2 164.865 34.285C163.69 33.345 163.105 32.045 163.105 30.38C163.105 28.65 163.67 27.33 164.8 26.41C165.95 25.47 167.595 25 169.73 25C170.56 25 171.395 25.095 172.225 25.29C173.055 25.46 173.77 25.695 174.37 25.995V25.675C174.37 24.03 173.025 23.21 170.34 23.21C168.465 23.21 166.745 23.575 165.19 24.3V20.43C165.87 20.11 166.77 19.855 167.88 19.66C168.99 19.445 170.14 19.34 171.335 19.34C174.195 19.34 176.35 19.915 177.8 21.07C179.27 22.2 180.01 23.79 180.01 25.84V35.185H174.73V33.875C174.155 34.43 173.43 34.865 172.555 35.185C171.68 35.505 170.665 35.66 169.535 35.66ZM171.2 32.205C171.86 32.205 172.48 32.075 173.055 31.82C173.63 31.545 174.07 31.19 174.365 30.765V29.42C173.445 28.8 172.4 28.49 171.23 28.49C170.485 28.49 169.905 28.65 169.5 28.97C169.095 29.29 168.89 29.76 168.89 30.38C168.89 30.955 169.08 31.405 169.465 31.725C169.88 32.045 170.455 32.205 171.2 32.205Z" fill="#272A2A"/>
<path d="M0 24C0 4.236 4.236 0 24 0C43.764 0 48 4.236 48 24C48 43.764 43.764 48 24 48C4.236 48 0 43.764 0 24Z" fill="#FF6B00"/>
<path d="M15.936 25.062L25.698 15.3L29.094 18.696L15.516 32.274L9.14999 25.908L12.972 22.092L15.936 25.062Z" fill="white"/>
<path d="M21.8783 29.3004L35.4546 15.7241L38.8487 19.1182L25.2724 32.6945L21.8783 29.3004Z" fill="white"/>
</g>
<defs>
<clipPath id="clip0_504_1827">
<rect width="180" height="48" fill="white"/>
</clipPath>
</defs>
</svg>
